<svg xmlns="http://www.w3.org/2000/svg" width="65.641" height="60" viewBox="0 0 65.641 60"><defs><style>.a{fill:#d9d9d9;}</style></defs><path class="a" d="M154.872,111A14.889,14.889,0,0,0,140,125.872v11.875a.962.962,0,0,0,1.923,0V125.872a12.949,12.949,0,1,1,25.9,0v3.654a.962.962,0,0,0,1.923,0v-3.654A14.889,14.889,0,0,0,154.872,111Z" transform="translate(-122.051 -99.59)"/><path class="a" d="M238.308,172.983h-3.846a.961.961,0,0,0-.962.962v14.1a.961.961,0,0,0,.962.962h3.846a.961.961,0,0,0,.962-.962v-14.1A.961.961,0,0,0,238.308,172.983Zm-.962,14.1h-1.923V174.906h1.923Z" transform="translate(-203.564 -153.626)"/><path class="a" d="M236.385,309.983a2.885,2.885,0,1,0,2.885,2.885A2.888,2.888,0,0,0,236.385,309.983Zm0,3.846a.962.962,0,1,1,.962-.962A.963.963,0,0,1,236.385,313.829Z" transform="translate(-203.564 -273.062)"/><path class="a" d="M62.756,301.808H51.731v-6.731a.961.961,0,0,0-.962-.962H47.692v-12.4a.962.962,0,1,0-1.923,0v12.4h-25.9v-4.231a.962.962,0,1,0-1.923,0v4.231H14.872a.961.961,0,0,0-.962.962v6.731H2.885a2.885,2.885,0,0,0,0,5.769H62.756a2.885,2.885,0,0,0,0-5.769Zm0,3.846H2.885a.962.962,0,1,1,0-1.923H41.09a.962.962,0,0,0,0-1.923H15.833v-5.769H49.808v5.769H45.171a.962.962,0,0,0,0,1.923H62.756a.962.962,0,1,1,0,1.923Z" transform="translate(0 -247.577)"/><path class="a" d="M249.462,22a.961.961,0,0,0-.962.962v4.47a.962.962,0,0,0,1.923,0v-4.47A.961.961,0,0,0,249.462,22Z" transform="translate(-216.641 -22)"/><path class="a" d="M148.034,54.265l-2.242-3.871a.962.962,0,0,0-1.664.964l2.242,3.871a.962.962,0,0,0,1.664-.964Z" transform="translate(-125.537 -46.336)"/><path class="a" d="M72.824,128.412l-3.884-2.235a.962.962,0,0,0-.959,1.667l3.884,2.235a.962.962,0,0,0,.959-1.667Z" transform="translate(-58.845 -112.709)"/><path class="a" d="M44.946,230H40.462a.962.962,0,0,0,0,1.923h4.484a.962.962,0,0,0,0-1.923Z" transform="translate(-34.436 -203.333)"/><path class="a" d="M427.967,230h-4.484a.962.962,0,1,0,0,1.923h4.484a.962.962,0,1,0,0-1.923Z" transform="translate(-368.352 -203.333)"/><path class="a" d="M404.884,126.09a.962.962,0,0,0-1.313-.354l-3.884,2.235a.962.962,0,1,0,.959,1.667l3.884-2.235A.962.962,0,0,0,404.884,126.09Z" transform="translate(-348.025 -112.325)"/><path class="a" d="M339.2,49.283a.962.962,0,0,0-1.314.35L335.639,53.5a.962.962,0,1,0,1.664.964l2.242-3.871A.962.962,0,0,0,339.2,49.283Z" transform="translate(-292.495 -45.672)"/><path class="a" d="M144.693,413.694h-4.224a.962.962,0,0,0,0,1.923h4.224a.962.962,0,0,0,0-1.923Z" transform="translate(-121.622 -363.477)"/></svg>