<svg
	xmlns="http://www.w3.org/2000/svg" width="70" height="95.202" viewBox="0 0 70 95.202">
	<defs>
		<style>.ghostA,.ghostB,.ghostD{fill:none;}.ghostB,.ghostC,.ghostD,.ghostE{stroke:#000;stroke-miterlimit:10;}.ghostB,.ghostC{stroke-width:2px;}.ghostE{stroke-width:0.5px;}</style>
	</defs>
	<g transform="translate(0 0.124)">
		<path class="ghostA" d="M81.3,80.5" transform="translate(-11.3 -11.047)"/>
		<path class="ghostA" d="M.6,80.5" transform="translate(-0.083 -11.047)"/>
		<path class="ghostB" d="M51.661,41.3c.086.431.517,2.153.6,2.5.172.6.258,1.033.344,1.292,1.292,4.391,1.55,3.53,2.5,7.232a65.918,65.918,0,0,1,2.755,19.373l-.172,10.5v.344a3.685,3.685,0,0,1-3.7,3.444,3.591,3.591,0,0,1-3.616-3.358V77.2a3.7,3.7,0,1,0-7.4,0V90.375a3.7,3.7,0,1,1-7.4,0l.086-7.577.086-3.875a3.73,3.73,0,0,0-3.7-3.7,3.675,3.675,0,0,0-3.7,3.7v1.55a3.535,3.535,0,0,1-.947,2.411,3.655,3.655,0,0,1-2.755,1.292,3.28,3.28,0,0,1-2.669-1.205,3.751,3.751,0,0,1-.947-2.5V75.48a3.73,3.73,0,0,0-3.7-3.7,3.675,3.675,0,0,0-3.7,3.7v7.577a3.675,3.675,0,0,1-3.7,3.7,3.73,3.73,0,0,1-3.7-3.7V71.864c0-9.643.775-18.856,2.411-42.706.172-1.98.258-4.047.431-6.2a23.572,23.572,0,0,1,1.722-7.577A23.97,23.97,0,0,1,20.751,4.533C22.559,3.5,31.944-1.58,40.64,2.725A18.81,18.81,0,0,1,48.648,10.3a13.792,13.792,0,0,1,1.636,4.649,14.544,14.544,0,0,1-.431,5.51c-1.119,4.477-.689,9.729.086,14.637" transform="translate(-0.862)"/>
		<ellipse class="ghostC" cx="2.153" cy="3.616" rx="2.153" ry="3.616" transform="translate(33.924 20.548)"/>
		<ellipse class="ghostC" cx="2.153" cy="3.616" rx="2.153" ry="3.616" transform="translate(41.156 19.945)"/>
		<path class="ghostC" d="M50.241,41.044l-3.1.172,2.153,1.464a1.875,1.875,0,0,1-.689.431,3.61,3.61,0,0,1-1.378.344,2.927,2.927,0,1,1,2.927-2.927A1.092,1.092,0,0,1,50.241,41.044Z" transform="translate(-6.157 -5.084)"/>
		<g transform="translate(30.195 31.142)">
			<path d="M38.8,44.611a4.923,4.923,0,0,1-.344-6.716c.947-1.033-.6-2.583-1.55-1.55a6.914,6.914,0,0,0,.344,9.729,1.066,1.066,0,1,0,1.55-1.464Z" transform="translate(-35.07 -36.004)"/>
		</g>
		<g transform="translate(0 31.318)">
			<path d="M6.027,36.89A78.545,78.545,0,0,0,0,65.992a1.077,1.077,0,0,0,2.153,0,75.836,75.836,0,0,1,6.027-28.5c.517-1.292-1.55-1.808-2.153-.6Z" transform="translate(0 -36.209)"/>
		</g>
		<path class="ghostB" d="M67.677,43.457c1.808.431,3.444.172,4.219-.861.775-1.119.172-2.755,0-3.272C70,34.5,58.808,33.986,57,33.9" transform="translate(-7.923 -4.57)"/>
		<line class="ghostB" y1="3.616" x2="1.55" transform="translate(6.716 29.072)"/>
		<g transform="translate(41.023 33.457)">
			<path d="M62.157,38.7,47.951,41.282a.422.422,0,0,0-.086.775l13.173,6.458a.406.406,0,0,0,.517-.086c2.927-2.583,3.1-6.371,1.033-9.557-.258-.431-1.033,0-.775.431,1.378,2.153,1.808,4.391.517,6.716-.258.517-.861,1.55-1.378,1.722.689-.258.086-.172-.517-.517-.775-.431-1.636-.775-2.411-1.205-3.272-1.636-6.544-3.186-9.815-4.822,0,.258-.086.517-.086.775L62.33,39.388C62.932,39.474,62.76,38.613,62.157,38.7Z" transform="translate(-47.645 -38.693)"/>
		</g>
		<path class="ghostD" d="M66.069,51.218A2.035,2.035,0,0,0,65.9,50.1a1.381,1.381,0,0,0-2.5.431" transform="translate(-8.812 -6.734)"/>
		<path class="ghostD" d="M62.378,38.84c.431-3.272,2.411-1.98,2.411-1.98a9.228,9.228,0,0,1,2.066,6.113s-.086,2.669-3.014,6.371l-.172.172a1.674,1.674,0,0,1-1.55.172,2.839,2.839,0,0,1-1.033-.861c-1.292-1.636-10.677-4.994-12.226-6.371A6.666,6.666,0,0,1,48,41.423h.086" transform="translate(-6.671 -4.946)"/>
		<ellipse class="ghostE" cx="0.947" cy="0.689" rx="0.947" ry="0.689" transform="translate(53.383 35.013)"/>
		<ellipse class="ghostE" cx="0.947" cy="0.689" rx="0.947" ry="0.689" transform="translate(48.475 37.682)"/>
		<ellipse class="ghostE" cx="0.947" cy="0.689" rx="0.947" ry="0.689" transform="translate(52.866 39.662)"/>
		<ellipse class="ghostE" cx="0.947" cy="0.689" rx="0.947" ry="0.689" transform="translate(48.647 35.701)"/>
		<ellipse class="ghostE" cx="0.947" cy="0.689" rx="0.947" ry="0.689" transform="translate(52.435 36.993)"/>
		<ellipse class="ghostE" cx="0.947" cy="0.689" rx="0.947" ry="0.689" transform="translate(43.911 36.132)"/>
	</g>
</svg>