<svg width="26" height="26" viewBox="0 0 18 13" fill="none" xmlns="http://www.w3.org/2000/svg">
<path fill-rule="evenodd" clip-rule="evenodd" d="M8.59652 10.036L9.00002 10.4395L9.40352 10.036C9.13669 9.98761 8.86334 9.98761 8.59652 10.036ZM6.85802 9.17201C7.48621 8.73366 8.234 8.49906 9.00002 8.50001C9.79502 8.50001 10.5345 8.74751 11.142 9.17201C11.2318 9.23468 11.3068 9.31626 11.3617 9.41102C11.4166 9.50577 11.4501 9.6114 11.4599 9.72048C11.4696 9.82956 11.4553 9.93945 11.418 10.0424C11.3807 10.1454 11.3213 10.2389 11.244 10.3165L9.53102 12.031C9.46135 12.1009 9.37858 12.1563 9.28747 12.1941C9.19635 12.2319 9.09867 12.2514 9.00002 12.2514C8.90137 12.2514 8.80368 12.2319 8.71257 12.1941C8.62145 12.1563 8.53869 12.1009 8.46902 12.031L6.75602 10.315C6.65137 10.21 6.58018 10.0764 6.55142 9.93101C6.52267 9.7856 6.53765 9.63493 6.59446 9.49803C6.65128 9.36113 6.74738 9.24413 6.87064 9.16181C6.9939 9.07949 7.13879 9.03554 7.28702 9.03551V9.78551L6.85802 9.17051V9.17201ZM9.00002 6.25001C7.53913 6.24762 6.11729 6.72157 4.95002 7.60001C4.87122 7.65911 4.78156 7.7021 4.68615 7.72655C4.59074 7.75099 4.49145 7.7564 4.39395 7.74247C4.19704 7.71434 4.01936 7.60914 3.90002 7.45001C3.78067 7.29088 3.72942 7.09086 3.75756 6.89395C3.78569 6.69703 3.89089 6.51936 4.05002 6.40001C5.42852 5.36501 7.14302 4.75001 9.00002 4.75001C10.857 4.75001 12.5715 5.36501 13.95 6.40001C14.0288 6.45911 14.0952 6.53314 14.1454 6.61789C14.1956 6.70264 14.2286 6.79644 14.2425 6.89395C14.2564 6.99145 14.251 7.09074 14.2266 7.18615C14.2021 7.28156 14.1591 7.37122 14.1 7.45001C14.0409 7.52881 13.9669 7.59519 13.8821 7.64537C13.7974 7.69555 13.7036 7.72855 13.6061 7.74247C13.5086 7.7564 13.4093 7.75099 13.3139 7.72655C13.2185 7.7021 13.1288 7.65911 13.05 7.60001C11.8827 6.72157 10.4609 6.24762 9.00002 6.25001ZM9.00002 1.75001C6.25052 1.75001 3.73502 2.73551 1.77902 4.37201C1.62581 4.49207 1.43193 4.54787 1.23834 4.52761C1.04475 4.50735 0.866627 4.41262 0.741597 4.26344C0.616568 4.11426 0.554432 3.92232 0.568319 3.72817C0.582206 3.53402 0.671028 3.35288 0.816017 3.22301C3.10854 1.29873 6.00695 0.245829 9.00002 0.250012C12.114 0.250012 14.97 1.36751 17.184 3.22301C17.2632 3.28504 17.329 3.36236 17.3777 3.45036C17.4264 3.53837 17.4569 3.63526 17.4673 3.73528C17.4778 3.8353 17.468 3.9364 17.4387 4.03258C17.4093 4.12875 17.3608 4.21803 17.2962 4.29511C17.2316 4.37218 17.1522 4.43548 17.0626 4.48123C16.9731 4.52698 16.8752 4.55426 16.7749 4.56143C16.6746 4.56861 16.5739 4.55554 16.4787 4.523C16.3836 4.49046 16.2959 4.43911 16.221 4.37201C14.1983 2.67418 11.6408 1.74553 9.00002 1.75001Z" fill="white"/>
</svg>
